<svg xmlns="http://www.w3.org/2000/svg" xmlns:xlink="http://www.w3.org/1999/xlink" width="571" height="751" version="1.1" viewBox="0 0 571 751"><title>bg-graph</title><desc>Created with Sketch.</desc><g id="Landing-Page" fill="none" fill-rule="evenodd" stroke="none" stroke-width="1" opacity=".347"><g id="bg-graph" transform="translate(303.750239, 379.840845) rotate(-70.000000) translate(-303.750239, -379.840845) translate(-20.749761, 102.340845)"><circle id="Combined-Shape" cx="476.529" cy="279.209" r="5.5" fill="#D6D6D6"/><circle id="Oval" cx="511.68" cy="259.098" r="5.5" fill="#D6D6D6"/><circle id="Oval" cx="476.766" cy="322.486" r="5.5" fill="#D6D6D6"/><circle id="Oval" cx="511.415" cy="337.2" r="5.5" fill="#D6D6D6"/><circle id="Oval" cx="546.169" cy="320.673" r="5.5" fill="#D6D6D6"/><circle id="Oval" cx="545.412" cy="279.571" r="5.5" fill="#D6D6D6"/><circle id="Oval" cx="599.494" cy="264.902" r="5.5" fill="#D6D6D6"/><circle id="Oval" cx="547.172" cy="364.594" r="5.5" fill="#D6D6D6"/><circle id="Oval" cx="581.178" cy="380.074" r="5.5" fill="#D6D6D6"/><circle id="Oval" cx="616.698" cy="364.189" r="5.5" fill="#D6D6D6"/><circle id="Oval" cx="615.818" cy="321.678" r="5.5" fill="#D6D6D6"/><circle id="Combined-Shape" cx="424.974" cy="379.544" r="5.5" fill="#D6D6D6"/><circle id="Oval" cx="459.358" cy="358.79" r="5.5" fill="#D6D6D6"/><circle id="Oval" cx="425.088" cy="421.412" r="5.5" fill="#D6D6D6"/><circle id="Combined-Shape" cx="424.649" cy="286.587" r="5.5" fill="#D6D6D6"/><circle id="Oval" cx="424.763" cy="328.456" r="5.5" fill="#D6D6D6"/><circle id="Oval" cx="459.859" cy="437.535" r="5.5" fill="#D6D6D6"/><circle id="Oval" cx="494.613" cy="421.008" r="5.5" fill="#D6D6D6"/><circle id="Oval" cx="493.091" cy="379.263" r="5.5" fill="#D6D6D6"/><circle id="Combined-Shape" cx="494.613" cy="421.008" r="5.5" fill="#D6D6D6"/><circle id="Oval" cx="494.851" cy="464.286" r="5.5" fill="#D6D6D6"/><circle id="Oval" cx="529.622" cy="480.408" r="5.5" fill="#D6D6D6"/><circle id="Oval" cx="564.377" cy="463.881" r="5.5" fill="#D6D6D6"/><circle id="Oval" cx="563.496" cy="421.37" r="5.5" fill="#D6D6D6"/><circle id="Combined-Shape" cx="504.022" cy="25.532" r="5.5" fill="#D6D6D6"/><circle id="Oval" cx="538.53" cy="6.187" r="5.5" fill="#D6D6D6"/><circle id="Oval" cx="503.493" cy="68.166" r="5.5" fill="#D6D6D6"/><circle id="Oval" cx="538.265" cy="84.289" r="5.5" fill="#D6D6D6"/><circle id="Oval" cx="573.662" cy="66.996" r="5.5" fill="#D6D6D6"/><circle id="Oval" cx="572.139" cy="25.251" r="5.5" fill="#D6D6D6"/><circle id="Oval" cx="625.578" cy="11.348" r="5.5" fill="#D6D6D6"/><circle id="Oval" cx="573.899" cy="110.274" r="5.5" fill="#D6D6D6"/><circle id="Oval" cx="608.028" cy="127.162" r="5.5" fill="#D6D6D6"/><circle id="Oval" cx="643.425" cy="109.869" r="5.5" fill="#D6D6D6"/><circle id="Oval" cx="642.545" cy="67.358" r="5.5" fill="#D6D6D6"/><circle id="Combined-Shape" cx="451.7" cy="125.224" r="5.5" fill="#D6D6D6"/><circle id="Oval" cx="486.851" cy="105.113" r="5.5" fill="#D6D6D6"/><circle id="Oval" cx="451.172" cy="167.858" r="5.5" fill="#D6D6D6"/><circle id="Combined-Shape" cx="452.142" cy="32.91" r="5.5" fill="#D6D6D6"/><circle id="Oval" cx="451.613" cy="75.545" r="5.5" fill="#D6D6D6"/><circle id="Oval" cx="485.943" cy="183.981" r="5.5" fill="#D6D6D6"/><circle id="Oval" cx="522.106" cy="167.331" r="5.5" fill="#D6D6D6"/><circle id="Oval" cx="520.583" cy="125.585" r="5.5" fill="#D6D6D6"/><circle id="Combined-Shape" cx="522.106" cy="167.331" r="5.5" fill="#D6D6D6"/><circle id="Oval" cx="521.577" cy="209.965" r="5.5" fill="#D6D6D6"/><circle id="Oval" cx="556.349" cy="226.088" r="5.5" fill="#D6D6D6"/><circle id="Oval" cx="591.103" cy="209.561" r="5.5" fill="#D6D6D6"/><circle id="Oval" cx="590.223" cy="167.05" r="5.5" fill="#D6D6D6"/><circle id="Combined-Shape" cx="58.326" cy="326.444" r="5.5" fill="#D6D6D6"/><circle id="Oval" cx="92.834" cy="307.1" r="5.5" fill="#D6D6D6"/><circle id="Oval" cx="58.563" cy="369.722" r="5.5" fill="#D6D6D6"/><circle id="Oval" cx="92.569" cy="385.202" r="5.5" fill="#D6D6D6"/><circle id="Oval" cx="128.089" cy="369.317" r="5.5" fill="#D6D6D6"/><circle id="Oval" cx="127.209" cy="326.806" r="5.5" fill="#D6D6D6"/><circle id="Oval" cx="180.648" cy="312.903" r="5.5" fill="#D6D6D6"/><circle id="Oval" cx="128.326" cy="412.595" r="5.5" fill="#D6D6D6"/><circle id="Oval" cx="163.098" cy="428.718" r="5.5" fill="#D6D6D6"/><circle id="Oval" cx="197.852" cy="412.191" r="5.5" fill="#D6D6D6"/><circle id="Oval" cx="196.972" cy="369.679" r="5.5" fill="#D6D6D6"/><circle id="Combined-Shape" cx="6.771" cy="426.779" r="5.5" fill="#D6D6D6"/><circle id="Oval" cx="40.512" cy="406.791" r="5.5" fill="#D6D6D6"/><circle id="Oval" cx="6.242" cy="469.413" r="5.5" fill="#D6D6D6"/><circle id="Combined-Shape" cx="5.803" cy="334.588" r="5.5" fill="#D6D6D6"/><circle id="Oval" cx="6.683" cy="377.1" r="5.5" fill="#D6D6D6"/><circle id="Oval" cx="41.013" cy="485.536" r="5.5" fill="#D6D6D6"/><circle id="Oval" cx="76.534" cy="469.652" r="5.5" fill="#D6D6D6"/><circle id="Oval" cx="74.888" cy="426.498" r="5.5" fill="#D6D6D6"/><circle id="Combined-Shape" cx="76.534" cy="469.652" r="5.5" fill="#D6D6D6"/><circle id="Oval" cx="76.005" cy="512.287" r="5.5" fill="#D6D6D6"/><circle id="Oval" cx="110.776" cy="528.409" r="5.5" fill="#D6D6D6"/><circle id="Oval" cx="145.531" cy="511.882" r="5.5" fill="#D6D6D6"/><circle id="Oval" cx="144.651" cy="469.371" r="5.5" fill="#D6D6D6"/><circle id="Combined-Shape" cx="146.346" cy="83.087" r="5.5" fill="#D6D6D6" transform="translate(146.345529, 83.087229) scale(-1, 1) translate(-146.345529, -83.087229)"/><circle id="Oval" cx="111.97" cy="63.381" r="5.5" fill="#D6D6D6" transform="translate(111.970282, 63.380824) scale(-1, 1) translate(-111.970282, -63.380824)"/><circle id="Oval" cx="146.583" cy="126.365" r="5.5" fill="#D6D6D6" transform="translate(146.582782, 126.364749) scale(-1, 1) translate(-146.582782, -126.364749)"/><circle id="Oval" cx="111.705" cy="141.483" r="5.5" fill="#D6D6D6" transform="translate(111.705248, 141.482871) scale(-1, 1) translate(-111.705248, -141.482871)"/><circle id="Oval" cx="76.934" cy="125.36" r="5.5" fill="#D6D6D6" transform="translate(76.933727, 125.360174) scale(-1, 1) translate(-76.933727, -125.360174)"/><circle id="Oval" cx="78.229" cy="83.368" r="5.5" fill="#D6D6D6" transform="translate(78.228563, 83.368229) scale(-1, 1) translate(-78.228563, -83.368229)"/><circle id="Oval" cx="24.499" cy="69.614" r="5.5" fill="#D6D6D6" transform="translate(24.499438, 69.613915) scale(-1, 1) translate(-24.499438, -69.613915)"/><circle id="Oval" cx="75.762" cy="168.761" r="5.5" fill="#D6D6D6" transform="translate(75.762149, 168.760950) scale(-1, 1) translate(-75.762149, -168.760950)"/><circle id="Oval" cx="41.651" cy="184.522" r="5.5" fill="#D6D6D6" transform="translate(41.650659, 184.521859) scale(-1, 1) translate(-41.650659, -184.521859)"/><circle id="Oval" cx="6.879" cy="168.399" r="5.5" fill="#D6D6D6" transform="translate(6.879138, 168.399162) scale(-1, 1) translate(-6.879138, -168.399162)"/><circle id="Oval" cx="7.408" cy="125.764" r="5.5" fill="#D6D6D6" transform="translate(7.407930, 125.764430) scale(-1, 1) translate(-7.407930, -125.764430)"/><circle id="Combined-Shape" cx="198.374" cy="182.877" r="5.5" fill="#D6D6D6" transform="translate(198.374284, 182.877052) scale(-1, 1) translate(-198.374284, -182.877052)"/><circle id="Oval" cx="163.999" cy="163.171" r="5.5" fill="#D6D6D6" transform="translate(163.999037, 163.170646) scale(-1, 1) translate(-163.999037, -163.170646)"/><circle id="Oval" cx="198.612" cy="226.155" r="5.5" fill="#D6D6D6" transform="translate(198.611537, 226.154571) scale(-1, 1) translate(-198.611537, -226.154571)"/><circle id="Combined-Shape" cx="198.173" cy="91.329" r="5.5" fill="#D6D6D6" transform="translate(198.172794, 91.329472) scale(-1, 1) translate(-198.172794, -91.329472)"/><circle id="Oval" cx="198.287" cy="133.198" r="5.5" fill="#D6D6D6" transform="translate(198.286791, 133.198159) scale(-1, 1) translate(-198.286791, -133.198159)"/><circle id="Oval" cx="163.734" cy="241.273" r="5.5" fill="#D6D6D6" transform="translate(163.734003, 241.272693) scale(-1, 1) translate(-163.734003, -241.272693)"/><circle id="Oval" cx="128.32" cy="225.916" r="5.5" fill="#D6D6D6" transform="translate(128.319695, 225.916041) scale(-1, 1) translate(-128.319695, -225.916041)"/><circle id="Oval" cx="130.257" cy="183.158" r="5.5" fill="#D6D6D6" transform="translate(130.257318, 183.158052) scale(-1, 1) translate(-130.257318, -183.158052)"/><circle id="Combined-Shape" cx="128.32" cy="225.916" r="5.5" fill="#D6D6D6" transform="translate(128.319695, 225.916041) scale(-1, 1) translate(-128.319695, -225.916041)"/><circle id="Oval" cx="127.791" cy="268.551" r="5.5" fill="#D6D6D6" transform="translate(127.790904, 268.550773) scale(-1, 1) translate(-127.790904, -268.550773)"/><circle id="Oval" cx="93.679" cy="284.312" r="5.5" fill="#D6D6D6" transform="translate(93.679414, 284.311682) scale(-1, 1) translate(-93.679414, -284.311682)"/><circle id="Oval" cx="58.908" cy="268.189" r="5.5" fill="#D6D6D6" transform="translate(58.907893, 268.188985) scale(-1, 1) translate(-58.907893, -268.188985)"/><circle id="Oval" cx="59.437" cy="225.554" r="5.5" fill="#D6D6D6" transform="translate(59.436684, 225.554253) scale(-1, 1) translate(-59.436684, -225.554253)"/><circle id="Combined-Shape" cx="274.511" cy="347.28" r="5.5" fill="#D6D6D6"/><circle id="Oval" cx="309.019" cy="327.935" r="5.5" fill="#D6D6D6"/><circle id="Oval" cx="274.748" cy="390.557" r="5.5" fill="#D6D6D6"/><circle id="Oval" cx="308.754" cy="406.037" r="5.5" fill="#D6D6D6"/><circle id="Oval" cx="343.508" cy="389.51" r="5.5" fill="#D6D6D6"/><circle id="Oval" cx="342.628" cy="346.999" r="5.5" fill="#D6D6D6"/><circle id="Oval" cx="396.067" cy="333.096" r="5.5" fill="#D6D6D6"/><circle id="Oval" cx="344.511" cy="433.43" r="5.5" fill="#D6D6D6"/><circle id="Oval" cx="378.517" cy="448.91" r="5.5" fill="#D6D6D6"/><circle id="Oval" cx="414.037" cy="433.026" r="5.5" fill="#D6D6D6"/><circle id="Oval" cx="412.391" cy="389.872" r="5.5" fill="#D6D6D6"/><circle id="Combined-Shape" cx="222.955" cy="447.614" r="5.5" fill="#D6D6D6"/><circle id="Oval" cx="256.697" cy="427.627" r="5.5" fill="#D6D6D6"/><circle id="Oval" cx="222.427" cy="490.249" r="5.5" fill="#D6D6D6"/><circle id="Combined-Shape" cx="222.631" cy="354.658" r="5.5" fill="#D6D6D6"/><circle id="Oval" cx="222.102" cy="397.293" r="5.5" fill="#D6D6D6"/><circle id="Oval" cx="257.198" cy="506.372" r="5.5" fill="#D6D6D6"/><circle id="Oval" cx="291.952" cy="489.845" r="5.5" fill="#D6D6D6"/><circle id="Oval" cx="291.072" cy="447.333" r="5.5" fill="#D6D6D6"/><circle id="Combined-Shape" cx="291.952" cy="489.845" r="5.5" fill="#D6D6D6"/><circle id="Oval" cx="292.19" cy="533.122" r="5.5" fill="#D6D6D6"/><circle id="Oval" cx="326.961" cy="549.245" r="5.5" fill="#D6D6D6"/><circle id="Oval" cx="362.358" cy="531.952" r="5.5" fill="#D6D6D6"/><circle id="Oval" cx="360.835" cy="490.206" r="5.5" fill="#D6D6D6"/><circle id="Combined-Shape" cx="362.53" cy="103.923" r="5.5" fill="#D6D6D6" transform="translate(362.530360, 103.922745) scale(-1, 1) translate(-362.530360, -103.922745)"/><circle id="Oval" cx="328.155" cy="84.216" r="5.5" fill="#D6D6D6" transform="translate(328.155114, 84.216339) scale(-1, 1) translate(-328.155114, -84.216339)"/><circle id="Oval" cx="362.002" cy="146.557" r="5.5" fill="#D6D6D6" transform="translate(362.001569, 146.557477) scale(-1, 1) translate(-362.001569, -146.557477)"/><circle id="Oval" cx="327.89" cy="162.318" r="5.5" fill="#D6D6D6" transform="translate(327.890079, 162.318386) scale(-1, 1) translate(-327.890079, -162.318386)"/><circle id="Oval" cx="292.353" cy="145.553" r="5.5" fill="#D6D6D6" transform="translate(292.352514, 145.552902) scale(-1, 1) translate(-292.352514, -145.552902)"/><circle id="Oval" cx="293.647" cy="103.561" r="5.5" fill="#D6D6D6" transform="translate(293.647350, 103.560957) scale(-1, 1) translate(-293.647350, -103.560957)"/><circle id="Oval" cx="239.918" cy="89.807" r="5.5" fill="#D6D6D6" transform="translate(239.918225, 89.806643) scale(-1, 1) translate(-239.918225, -89.806643)"/><circle id="Oval" cx="291.947" cy="189.596" r="5.5" fill="#D6D6D6" transform="translate(291.946980, 189.596466) scale(-1, 1) translate(-291.946980, -189.596466)"/><circle id="Oval" cx="257.835" cy="205.357" r="5.5" fill="#D6D6D6" transform="translate(257.835490, 205.357375) scale(-1, 1) translate(-257.835490, -205.357375)"/><circle id="Oval" cx="222.298" cy="188.592" r="5.5" fill="#D6D6D6" transform="translate(222.297925, 188.591890) scale(-1, 1) translate(-222.297925, -188.591890)"/><circle id="Oval" cx="223.593" cy="146.6" r="5.5" fill="#D6D6D6" transform="translate(223.592761, 146.599946) scale(-1, 1) translate(-223.592761, -146.599946)"/><circle id="Combined-Shape" cx="414.559" cy="203.713" r="5.5" fill="#D6D6D6" transform="translate(414.559115, 203.712567) scale(-1, 1) translate(-414.559115, -203.712567)"/><circle id="Oval" cx="380.184" cy="184.006" r="5.5" fill="#D6D6D6" transform="translate(380.183869, 184.006162) scale(-1, 1) translate(-380.183869, -184.006162)"/><circle id="Oval" cx="414.03" cy="246.347" r="5.5" fill="#D6D6D6" transform="translate(414.030324, 246.347300) scale(-1, 1) translate(-414.030324, -246.347300)"/><circle id="Combined-Shape" cx="414.234" cy="110.756" r="5.5" fill="#D6D6D6" transform="translate(414.234369, 110.756155) scale(-1, 1) translate(-414.234369, -110.756155)"/><circle id="Oval" cx="414.472" cy="154.034" r="5.5" fill="#D6D6D6" transform="translate(414.471622, 154.033675) scale(-1, 1) translate(-414.471622, -154.033675)"/><circle id="Oval" cx="379.919" cy="262.108" r="5.5" fill="#D6D6D6" transform="translate(379.918834, 262.108209) scale(-1, 1) translate(-379.918834, -262.108209)"/><circle id="Oval" cx="343.738" cy="246.109" r="5.5" fill="#D6D6D6" transform="translate(343.738482, 246.108769) scale(-1, 1) translate(-343.738482, -246.108769)"/><circle id="Oval" cx="345.676" cy="203.351" r="5.5" fill="#D6D6D6" transform="translate(345.676105, 203.350780) scale(-1, 1) translate(-345.676105, -203.350780)"/><circle id="Combined-Shape" cx="343.738" cy="246.109" r="5.5" fill="#D6D6D6" transform="translate(343.738482, 246.108769) scale(-1, 1) translate(-343.738482, -246.108769)"/><circle id="Oval" cx="343.976" cy="289.386" r="5.5" fill="#D6D6D6" transform="translate(343.975735, 289.386288) scale(-1, 1) translate(-343.975735, -289.386288)"/><circle id="Oval" cx="309.864" cy="305.147" r="5.5" fill="#D6D6D6" transform="translate(309.864245, 305.147198) scale(-1, 1) translate(-309.864245, -305.147198)"/><circle id="Oval" cx="274.327" cy="288.382" r="5.5" fill="#D6D6D6" transform="translate(274.326680, 288.381713) scale(-1, 1) translate(-274.326680, -288.381713)"/><circle id="Oval" cx="275.622" cy="246.39" r="5.5" fill="#D6D6D6" transform="translate(275.621516, 246.389768) scale(-1, 1) translate(-275.621516, -246.389768)"/><path id="Path-10" stroke="#D6D6D6" stroke-width="2" d="M513.396488,258.999263 L545.396488,277.999263"/><polyline id="Path-11" stroke="#D6D6D6" stroke-width="2" points="546.619 279.309 478.619 278.301 477.619 322.161 513.119 339.301 480.619 280.822"/><polyline id="Path-12" stroke="#D6D6D6" stroke-width="1.5" points="545.786 277.998 547.814 319.841 511.814 338.998"/><path id="Path-13" stroke="#D6D6D6" stroke-width="1.5" d="M511.584423,336.271761 L546.584423,278.271761"/><path id="Path-10" stroke="#D6D6D6" stroke-width="2" d="M598.805486,264.557728 L615.805486,321.557728"/><polyline id="Path-11" stroke="#D6D6D6" stroke-width="2" points="616.382 322.183 548.382 321.174 547.382 365.034 582.882 382.174 550.382 323.695"/><polyline id="Path-12" stroke="#D6D6D6" stroke-width="1.5" points="615.549 320.871 617.577 362.714 581.577 381.871"/><path id="Path-13" stroke="#D6D6D6" stroke-width="1.5" d="M581.347474,379.145024 L616.347474,321.145024"/><path id="Path-10" stroke="#D6D6D6" stroke-width="2" d="M461.074918,358.691055 L493.074918,377.691055"/><polyline id="Path-11" stroke="#D6D6D6" stroke-width="2" points="494.298 379.001 426.298 377.993 425.298 421.852 460.798 438.993 428.298 380.513"/><polyline id="Path-12" stroke="#D6D6D6" stroke-width="1.5" points="493.464 377.69 495.492 419.533 459.492 438.69"/><path id="Path-13" stroke="#D6D6D6" stroke-width="1.5" d="M459.262853,435.963552 L494.262853,377.963552"/><path id="Path-10" stroke="#D6D6D6" stroke-width="2" d="M546.483915,364.249519 L563.483915,421.249519"/><polyline id="Path-11" stroke="#D6D6D6" stroke-width="2" points="564.704 421.108 496.704 420.1 495.704 463.96 531.204 481.1 498.704 422.621"/><polyline id="Path-12" stroke="#D6D6D6" stroke-width="1.5" points="563.227 420.563 565.256 462.406 529.256 481.563"/><path id="Path-13" stroke="#D6D6D6" stroke-width="1.5" d="M529.025904,478.836815 L564.025904,420.836815"/><path id="Path-14" stroke="#D6D6D6" stroke-width="1.5" d="M494.585976,377.870122 L550.585976,363.870122"/><polyline id="Path-15" stroke="#D6D6D6" stroke-width="1.5" points="476.654 277.843 425.195 328.343 479.177 321.343 459.501 358.843 424.69 377.843 423.177 330.343"/><polyline id="Path-16" stroke="#D6D6D6" stroke-width="1.5" points="598.489 263.666 546.989 321.166 547.489 274.666 598.489 263.666 511.489 259.166 424.989 284.166 424.489 328.166"/><path id="Path-17" stroke="#D6D6D6" stroke-width="1.5" d="M475.740037,278.316207 L512.740037,260.316207"/><polyline id="Path-18" stroke="#D6D6D6" stroke-width="1.5" points="493.82 376.92 514.32 333.669 548.82 364.347 495.82 419.669"/><polyline id="Path-19" stroke="#D6D6D6" stroke-width="1.5" points="581.038 379.879 563.882 421.74 618.882 363.74"/><path id="Path-20" stroke="#D6D6D6" stroke-width="1.5" d="M566.010991,463.313914 L618.010991,364.313914"/><path id="Path-21" stroke="#D6D6D6" stroke-width="1.5" d="M491.629435,465.107995 L456.629435,437.107995"/><path id="Path-10" stroke="#D6D6D6" stroke-width="2" d="M539.480319,5.44525763 L571.480319,24.4452576"/><polyline id="Path-11" stroke="#D6D6D6" stroke-width="2" points="573.346 24.989 505.346 23.981 504.346 67.84 539.846 84.981 507.346 26.502"/><polyline id="Path-12" stroke="#D6D6D6" stroke-width="1.5" points="572.636 25.087 574.664 66.93 538.664 86.087"/><path id="Path-13" stroke="#D6D6D6" stroke-width="1.5" d="M537.668253,82.7177552 L572.668253,24.7177552"/><path id="Path-10" stroke="#D6D6D6" stroke-width="2" d="M624.889316,11.0037224 L641.889316,68.0037224"/><polyline id="Path-11" stroke="#D6D6D6" stroke-width="2" points="643.109 67.862 575.109 66.854 574.109 110.714 609.609 127.854 577.109 69.375"/><polyline id="Path-12" stroke="#D6D6D6" stroke-width="1.5" points="643.042 67.194 645.07 109.037 609.07 128.194"/><path id="Path-13" stroke="#D6D6D6" stroke-width="1.5" d="M608.074092,124.824974 L643.074092,66.8249738"/><path id="Path-10" stroke="#D6D6D6" stroke-width="2" d="M488.56758,105.013792 L520.56758,124.013792"/><polyline id="Path-11" stroke="#D6D6D6" stroke-width="2" points="521.79 125.324 453.79 124.316 452.79 168.175 488.29 185.316 455.79 126.836"/><polyline id="Path-12" stroke="#D6D6D6" stroke-width="1.5" points="520.957 124.013 522.985 165.856 486.985 185.013"/><path id="Path-13" stroke="#D6D6D6" stroke-width="1.5" d="M485.98947,181.643502 L520.98947,123.643502"/><path id="Path-10" stroke="#D6D6D6" stroke-width="2" d="M573.210533,109.929469 L590.210533,166.929469"/><polyline id="Path-11" stroke="#D6D6D6" stroke-width="2" points="591.553 168.197 523.553 167.189 522.553 211.048 558.053 228.189 525.553 169.709"/><polyline id="Path-12" stroke="#D6D6D6" stroke-width="1.5" points="590.72 166.886 592.748 208.729 556.748 227.886"/><path id="Path-13" stroke="#D6D6D6" stroke-width="1.5" d="M555.752522,224.516765 L590.752522,166.516765"/><path id="Path-14" stroke="#D6D6D6" stroke-width="1.5" d="M522.078638,124.192859 L578.078638,110.192859"/><polyline id="Path-15" stroke="#D6D6D6" stroke-width="1.5" points="504.147 24.165 452.688 74.665 506.67 67.665 486.994 105.165 452.183 124.165 450.67 76.665"/><polyline id="Path-16" stroke="#D6D6D6" stroke-width="1.5" points="624.573 10.112 573.073 67.612 573.573 21.112 624.573 10.112 537.573 5.612 451.073 30.612 450.573 74.612"/><path id="Path-17" stroke="#D6D6D6" stroke-width="1.5" d="M501.823867,24.7622017 L538.823867,6.76220169"/><polyline id="Path-18" stroke="#D6D6D6" stroke-width="1.5" points="519.903 123.366 540.403 80.115 574.903 110.793 521.903 166.115"/><polyline id="Path-19" stroke="#D6D6D6" stroke-width="1.5" points="607.765 125.559 590.609 167.419 645.609 109.419"/><path id="Path-20" stroke="#D6D6D6" stroke-width="1.5" d="M592.737609,208.993864 L644.737609,109.993864"/><path id="Path-21" stroke="#D6D6D6" stroke-width="1.5" d="M519.122097,211.430732 L484.122097,183.430732"/><path id="Path-10" stroke="#D6D6D6" stroke-width="2" d="M94.5505913,307.000456 L126.550591,326.000456"/><polyline id="Path-11" stroke="#D6D6D6" stroke-width="2" points="127.773 327.31 59.773 326.302 58.773 370.162 94.273 387.302 61.773 328.823"/><polyline id="Path-12" stroke="#D6D6D6" stroke-width="1.5" points="127.706 326.642 129.734 368.485 93.734 387.642"/><path id="Path-13" stroke="#D6D6D6" stroke-width="1.5" d="M92.738526,384.272954 L127.738526,326.272954"/><path id="Path-10" stroke="#D6D6D6" stroke-width="2" d="M179.959589,312.558921 L196.959589,369.558921"/><polyline id="Path-11" stroke="#D6D6D6" stroke-width="2" points="198.179 369.418 130.179 368.409 129.179 412.269 164.679 429.409 132.179 370.93"/><polyline id="Path-12" stroke="#D6D6D6" stroke-width="1.5" points="197.469 369.515 199.497 411.358 163.497 430.515"/><path id="Path-13" stroke="#D6D6D6" stroke-width="1.5" d="M162.501577,427.146217 L197.501577,369.146217"/><path id="Path-10" stroke="#D6D6D6" stroke-width="2" d="M42.2290209,406.692247 L74.2290209,425.692247"/><polyline id="Path-11" stroke="#D6D6D6" stroke-width="2" points="75.452 427.002 7.452 425.994 6.452 469.854 41.952 486.994 9.452 428.515"/><polyline id="Path-12" stroke="#D6D6D6" stroke-width="1.5" points="75.384 426.334 77.413 468.177 41.413 487.334"/><path id="Path-13" stroke="#D6D6D6" stroke-width="1.5" d="M40.4169555,483.964745 L75.4169555,425.964745"/><path id="Path-10" stroke="#D6D6D6" stroke-width="2" d="M127.638018,412.250712 L144.638018,469.250712"/><polyline id="Path-11" stroke="#D6D6D6" stroke-width="2" points="145.858 469.109 77.858 468.101 76.858 511.961 112.358 529.101 79.858 470.622"/><polyline id="Path-12" stroke="#D6D6D6" stroke-width="1.5" points="145.147 469.207 147.176 511.05 111.176 530.207"/><path id="Path-13" stroke="#D6D6D6" stroke-width="1.5" d="M110.822794,526.071964 L145.822794,468.071964"/><path id="Path-14" stroke="#D6D6D6" stroke-width="1.5" d="M76.5061235,426.514102 L132.506123,412.514102"/><polyline id="Path-15" stroke="#D6D6D6" stroke-width="1.5" points="57.267 325.351 6.726 375.851 59.744 368.851 40.42 406.351 6.231 425.351 4.744 377.851"/><polyline id="Path-16" stroke="#D6D6D6" stroke-width="1.5" points="179.643 311.667 128.143 369.167 128.643 322.667 179.643 311.667 92.643 307.167 6.143 332.167 5.643 376.167"/><path id="Path-17" stroke="#D6D6D6" stroke-width="1.5" d="M56.89414,326.3174 L93.89414,308.3174"/><polyline id="Path-18" stroke="#D6D6D6" stroke-width="1.5" points="74.974 424.922 95.474 381.67 129.974 412.349 76.974 467.67"/><polyline id="Path-19" stroke="#D6D6D6" stroke-width="1.5" points="162.192 427.88 145.036 469.741 200.036 411.741"/><path id="Path-20" stroke="#D6D6D6" stroke-width="1.5" d="M147.165094,511.315107 L199.165094,412.315107"/><path id="Path-21" stroke="#D6D6D6" stroke-width="1.5" d="M73.4263254,512.343143 L38.4263254,484.343143"/><path id="Path-10" stroke="#D6D6D6" stroke-width="2" d="M78.2196998,63.5455281 L110.2197,82.5455281" transform="translate(94.219700, 73.045528) scale(-1, 1) translate(-94.219700, -73.045528)"/><polyline id="Path-11" stroke="#D6D6D6" stroke-width="2" points="145.501 83.715 77.501 82.707 76.501 126.566 112.001 143.707 79.501 85.227" transform="translate(111.000981, 113.206780) scale(-1, 1) translate(-111.000981, -113.206780)"/><polyline id="Path-12" stroke="#D6D6D6" stroke-width="1.5" points="109.2 82.668 111.228 124.511 75.228 143.668" transform="translate(93.228414, 113.167642) scale(-1, 1) translate(-93.228414, -113.167642)"/><path id="Path-13" stroke="#D6D6D6" stroke-width="1.5" d="M77.050422,140.051981 L112.050422,82.0519812" transform="translate(94.550422, 111.051981) scale(-1, 1) translate(-94.550422, -111.051981)"/><path id="Path-10" stroke="#D6D6D6" stroke-width="2" d="M7.42460286,68.573924 L24.4246029,125.573924" transform="translate(15.924603, 97.073924) scale(-1, 1) translate(-15.924603, -97.073924)"/><polyline id="Path-11" stroke="#D6D6D6" stroke-width="2" points="76.089 125.988 8.089 124.98 7.089 168.839 42.589 185.98 10.089 127.5" transform="translate(41.589179, 155.479724) scale(-1, 1) translate(-41.589179, -155.479724)"/><polyline id="Path-12" stroke="#D6D6D6" stroke-width="1.5" points="39.146 125.707 41.174 167.55 5.174 186.707" transform="translate(23.173825, 156.206631) scale(-1, 1) translate(-23.173825, -156.206631)"/><path id="Path-13" stroke="#D6D6D6" stroke-width="1.5" d="M6.9958329,183.09097 L41.9958329,125.09097" transform="translate(24.495833, 154.090970) scale(-1, 1) translate(-24.495833, -154.090970)"/><path id="Path-10" stroke="#D6D6D6" stroke-width="2" d="M130.248455,163.335351 L162.248455,182.335351" transform="translate(146.248455, 172.835351) scale(-1, 1) translate(-146.248455, -172.835351)"/><polyline id="Path-11" stroke="#D6D6D6" stroke-width="2" points="197.53 183.505 129.53 182.497 128.53 226.356 164.03 243.497 131.53 185.017" transform="translate(163.029736, 212.996602) scale(-1, 1) translate(-163.029736, -212.996602)"/><polyline id="Path-12" stroke="#D6D6D6" stroke-width="1.5" points="161.229 182.457 163.257 224.3 127.257 243.457" transform="translate(145.257169, 212.957464) scale(-1, 1) translate(-145.257169, -212.957464)"/><path id="Path-13" stroke="#D6D6D6" stroke-width="1.5" d="M129.079177,239.841804 L164.079177,181.841804" transform="translate(146.579177, 210.841804) scale(-1, 1) translate(-146.579177, -210.841804)"/><path id="Path-10" stroke="#D6D6D6" stroke-width="2" d="M59.4533577,168.363746 L76.4533577,225.363746" transform="translate(67.953358, 196.863746) scale(-1, 1) translate(-67.953358, -196.863746)"/><polyline id="Path-11" stroke="#D6D6D6" stroke-width="2" points="127.352 225.135 59.352 224.127 58.352 267.986 93.852 285.127 61.352 226.647" transform="translate(92.851890, 254.626759) scale(-1, 1) translate(-92.851890, -254.626759)"/><polyline id="Path-12" stroke="#D6D6D6" stroke-width="1.5" points="91.174 225.496 93.203 267.339 57.203 286.496" transform="translate(75.202580, 255.996453) scale(-1, 1) translate(-75.202580, -255.996453)"/><path id="Path-13" stroke="#D6D6D6" stroke-width="1.5" d="M59.0245878,282.880792 L94.0245878,224.880792" transform="translate(76.524588, 253.880792) scale(-1, 1) translate(-76.524588, -253.880792)"/><path id="Path-14" stroke="#D6D6D6" stroke-width="1.5" d="M72.2119327,182.715907 L128.211933,168.715907" transform="translate(100.211933, 175.715907) scale(-1, 1) translate(-100.211933, -175.715907)"/><polyline id="Path-15" stroke="#D6D6D6" stroke-width="1.5" points="196.916 82.276 145.456 132.776 199.438 125.776 179.762 163.276 144.952 182.276 143.438 134.776" transform="translate(171.438101, 132.276142) scale(-1, 1) translate(-171.438101, -132.276142)"/><polyline id="Path-16" stroke="#D6D6D6" stroke-width="1.5" points="198.78 67.948 147.28 125.448 147.78 78.948 198.78 67.948 111.78 63.448 25.28 88.448 24.78 132.448" transform="translate(111.779792, 97.948053) scale(-1, 1) translate(-111.779792, -97.948053)"/><path id="Path-17" stroke="#D6D6D6" stroke-width="1.5" d="M110.855091,83.1010031 L147.855091,65.1010031" transform="translate(129.355091, 74.101003) scale(-1, 1) translate(-129.355091, -74.101003)"/><polyline id="Path-18" stroke="#D6D6D6" stroke-width="1.5" points="74.263 181.52 94.763 138.268 129.263 168.947 76.263 224.268" transform="translate(101.763211, 181.268260) scale(-1, 1) translate(-101.763211, -181.268260)"/><polyline id="Path-19" stroke="#D6D6D6" stroke-width="1.5" points="20.898 184.001 3.742 225.862 58.742 167.862" transform="translate(31.242098, 196.861715) scale(-1, 1) translate(-31.242098, -196.861715)"/><path id="Path-20" stroke="#D6D6D6" stroke-width="1.5" d="M5.87092735,267.436123 L57.8709274,168.436123" transform="translate(31.870927, 217.936123) scale(-1, 1) translate(-31.870927, -217.936123)"/><path id="Path-21" stroke="#D6D6D6" stroke-width="1.5" d="M166.4383,269.259264 L131.4383,241.259264" transform="translate(148.938300, 255.259264) scale(-1, 1) translate(-148.938300, -255.259264)"/><path id="Path-10" stroke="#D6D6D6" stroke-width="2" d="M310.735423,327.835972 L342.735423,346.835972"/><polyline id="Path-11" stroke="#D6D6D6" stroke-width="2" points="343.958 348.146 275.958 347.138 274.958 390.997 310.458 408.138 277.958 349.658"/><polyline id="Path-12" stroke="#D6D6D6" stroke-width="1.5" points="343.125 346.835 345.153 388.678 309.153 407.835"/><path id="Path-13" stroke="#D6D6D6" stroke-width="1.5" d="M308.157313,404.465682 L343.157313,346.465682"/><path id="Path-10" stroke="#D6D6D6" stroke-width="2" d="M396.14442,333.394436 L413.14442,390.394436"/><polyline id="Path-11" stroke="#D6D6D6" stroke-width="2" points="414.364 390.253 346.364 389.245 345.364 433.104 380.864 450.245 348.364 391.766"/><polyline id="Path-12" stroke="#D6D6D6" stroke-width="1.5" points="412.888 389.708 414.916 431.551 378.916 450.708"/><path id="Path-13" stroke="#D6D6D6" stroke-width="1.5" d="M377.920364,447.338945 L412.920364,389.338945"/><path id="Path-10" stroke="#D6D6D6" stroke-width="2" d="M258.413852,427.527763 L290.413852,446.527763"/><polyline id="Path-11" stroke="#D6D6D6" stroke-width="2" points="292.279 447.072 224.279 446.063 223.279 489.923 258.779 507.063 226.279 448.584"/><polyline id="Path-12" stroke="#D6D6D6" stroke-width="1.5" points="290.803 446.527 292.831 488.37 256.831 507.527"/><path id="Path-13" stroke="#D6D6D6" stroke-width="1.5" d="M256.601787,504.800261 L291.601787,446.800261"/><path id="Path-10" stroke="#D6D6D6" stroke-width="2" d="M343.822849,433.086228 L360.822849,490.086228"/><polyline id="Path-11" stroke="#D6D6D6" stroke-width="2" points="362.042 489.945 294.042 488.937 293.042 532.796 328.542 549.937 296.042 491.457"/><polyline id="Path-12" stroke="#D6D6D6" stroke-width="1.5" points="361.209 488.634 363.237 530.477 327.237 549.634"/><path id="Path-13" stroke="#D6D6D6" stroke-width="1.5" d="M327.007626,546.907479 L362.007626,488.907479"/><path id="Path-14" stroke="#D6D6D6" stroke-width="1.5" d="M291.92491,446.70683 L347.92491,432.70683"/><polyline id="Path-15" stroke="#D6D6D6" stroke-width="1.5" points="273.993 346.679 222.534 397.179 276.516 390.179 256.84 427.679 222.029 446.679 220.516 399.179"/><polyline id="Path-16" stroke="#D6D6D6" stroke-width="1.5" points="395.828 332.502 344.328 390.002 344.828 343.502 395.828 332.502 308.828 328.002 222.328 353.002 221.828 397.002"/><path id="Path-17" stroke="#D6D6D6" stroke-width="1.5" d="M273.078971,347.152916 L310.078971,329.152916"/><polyline id="Path-18" stroke="#D6D6D6" stroke-width="1.5" points="291.159 445.757 311.659 402.506 346.159 433.184 293.159 488.506"/><polyline id="Path-19" stroke="#D6D6D6" stroke-width="1.5" points="378.377 448.715 361.221 490.576 416.221 432.576"/><path id="Path-20" stroke="#D6D6D6" stroke-width="1.5" d="M363.349926,532.150622 L415.349926,433.150622"/><path id="Path-21" stroke="#D6D6D6" stroke-width="1.5" d="M289.611157,533.178659 L254.611157,505.178659"/><path id="Path-10" stroke="#D6D6D6" stroke-width="2" d="M293.638487,83.7382561 L325.638487,102.738256" transform="translate(309.638487, 93.238256) scale(-1, 1) translate(-309.638487, -93.238256)"/><polyline id="Path-11" stroke="#D6D6D6" stroke-width="2" points="361.686 104.551 293.686 103.542 292.686 147.402 328.186 164.542 295.686 106.063" transform="translate(327.185812, 134.042295) scale(-1, 1) translate(-327.185812, -134.042295)"/><polyline id="Path-12" stroke="#D6D6D6" stroke-width="1.5" points="325.385 103.503 327.413 145.346 291.413 164.503" transform="translate(309.413245, 134.003158) scale(-1, 1) translate(-309.413245, -134.003158)"/><path id="Path-13" stroke="#D6D6D6" stroke-width="1.5" d="M293.235253,160.887497 L328.235253,102.887497" transform="translate(310.735253, 131.887497) scale(-1, 1) translate(-310.735253, -131.887497)"/><path id="Path-10" stroke="#D6D6D6" stroke-width="2" d="M223.609434,89.4094396 L240.609434,146.40944" transform="translate(232.109434, 117.909440) scale(-1, 1) translate(-232.109434, -117.909440)"/><polyline id="Path-11" stroke="#D6D6D6" stroke-width="2" points="291.508 146.181 223.508 145.172 222.508 189.032 258.008 206.172 225.508 147.693" transform="translate(257.007966, 175.672452) scale(-1, 1) translate(-257.007966, -175.672452)"/><polyline id="Path-12" stroke="#D6D6D6" stroke-width="1.5" points="255.33 146.542 257.359 188.385 221.359 207.542" transform="translate(239.358656, 177.042146) scale(-1, 1) translate(-239.358656, -177.042146)"/><path id="Path-13" stroke="#D6D6D6" stroke-width="1.5" d="M223.180664,203.926486 L258.180664,145.926486" transform="translate(240.680664, 174.926486) scale(-1, 1) translate(-240.680664, -174.926486)"/><path id="Path-10" stroke="#D6D6D6" stroke-width="2" d="M345.667241,183.528079 L377.667241,202.528079" transform="translate(361.667241, 193.028079) scale(-1, 1) translate(-361.667241, -193.028079)"/><polyline id="Path-11" stroke="#D6D6D6" stroke-width="2" points="412.949 203.698 344.949 202.689 343.949 246.549 379.449 263.689 346.949 205.21" transform="translate(378.448523, 233.189330) scale(-1, 1) translate(-378.448523, -233.189330)"/><polyline id="Path-12" stroke="#D6D6D6" stroke-width="1.5" points="377.414 203.293 379.442 245.136 343.442 264.293" transform="translate(361.442000, 233.792980) scale(-1, 1) translate(-361.442000, -233.792980)"/><path id="Path-13" stroke="#D6D6D6" stroke-width="1.5" d="M345.264008,260.677319 L380.264008,202.677319" transform="translate(362.764008, 231.677319) scale(-1, 1) translate(-362.764008, -231.677319)"/><path id="Path-10" stroke="#D6D6D6" stroke-width="2" d="M275.638189,189.199262 L292.638189,246.199262" transform="translate(284.138189, 217.699262) scale(-1, 1) translate(-284.138189, -217.699262)"/><polyline id="Path-11" stroke="#D6D6D6" stroke-width="2" points="343.537 245.971 275.537 244.962 274.537 288.822 310.037 305.962 277.537 247.483" transform="translate(309.036721, 275.462274) scale(-1, 1) translate(-309.036721, -275.462274)"/><polyline id="Path-12" stroke="#D6D6D6" stroke-width="1.5" points="307.236 244.923 309.264 286.766 273.264 305.923" transform="translate(291.264154, 275.423137) scale(-1, 1) translate(-291.264154, -275.423137)"/><path id="Path-13" stroke="#D6D6D6" stroke-width="1.5" d="M275.209419,303.716308 L310.209419,245.716308" transform="translate(292.709419, 274.716308) scale(-1, 1) translate(-292.709419, -274.716308)"/><path id="Path-14" stroke="#D6D6D6" stroke-width="1.5" d="M288.396764,203.551423 L344.396764,189.551423" transform="translate(316.396764, 196.551423) scale(-1, 1) translate(-316.396764, -196.551423)"/><polyline id="Path-15" stroke="#D6D6D6" stroke-width="1.5" points="413.1 103.112 361.641 153.612 415.623 146.612 395.947 184.112 361.136 203.112 359.623 155.612" transform="translate(387.622932, 153.111657) scale(-1, 1) translate(-387.622932, -153.111657)"/><polyline id="Path-16" stroke="#D6D6D6" stroke-width="1.5" points="414.965 88.784 363.465 146.284 363.965 99.784 414.965 88.784 327.965 84.284 241.465 109.284 240.965 153.284" transform="translate(327.964623, 118.783569) scale(-1, 1) translate(-327.964623, -118.783569)"/><path id="Path-17" stroke="#D6D6D6" stroke-width="1.5" d="M326.273878,103.293731 L363.273878,85.2937311" transform="translate(344.773878, 94.293731) scale(-1, 1) translate(-344.773878, -94.293731)"/><polyline id="Path-18" stroke="#D6D6D6" stroke-width="1.5" points="290.448 202.355 310.948 159.104 345.448 189.782 292.448 245.104" transform="translate(317.948043, 202.103775) scale(-1, 1) translate(-317.948043, -202.103775)"/><polyline id="Path-19" stroke="#D6D6D6" stroke-width="1.5" points="237.083 204.836 219.927 246.697 274.927 188.697" transform="translate(247.426930, 217.697231) scale(-1, 1) translate(-247.426930, -217.697231)"/><path id="Path-20" stroke="#D6D6D6" stroke-width="1.5" d="M221.289714,287.628851 L273.289714,188.628851" transform="translate(247.289714, 238.128851) scale(-1, 1) translate(-247.289714, -238.128851)"/><path id="Path-21" stroke="#D6D6D6" stroke-width="1.5" d="M381.857087,289.451992 L346.857087,261.451992" transform="translate(364.357087, 275.451992) scale(-1, 1) translate(-364.357087, -275.451992)"/><polyline id="Path-22" stroke="#D6D6D6" stroke-width="1.5" points="425.546 284.514 416.546 242.514 512.546 257.014 559.046 226.014 601.546 265.014 593.046 209.514"/><polyline id="Path-23" stroke="#D6D6D6" stroke-width="1.5" points="522.237 208.89 512.237 257.006 484.737 180.823 413.237 246.982 397.237 331.686 424.737 284.572 423.737 327.676 412.737 388.823 424.237 376.293 396.237 334.693"/><polyline id="Path-24" stroke="#D6D6D6" stroke-width="1.5" points="396.719 332.282 343.219 288.282 308.219 326.282 274.219 289.282 224.219 353.282 197.719 368.782 221.719 395.782 198.719 412.282"/><polyline id="Path-25" stroke="#D6D6D6" stroke-width="1.5" points="197.475 132.059 224.096 144.559 199.987 183.559 222.589 189.059 198.982 227.059 274.325 289.559 182.407 312.059 164.325 243.059"/><polyline id="Path-26" stroke="#D6D6D6" stroke-width="1.5" points="59.328 267.284 90.977 308.526 129.659 267.787 127.147 326.633 165.328 241.633"/><path id="Path-27" stroke="#D6D6D6" stroke-width="1.5" d="M58.0094806,266.87748 L6.42466481,333.60883"/><polyline id="Path-28" stroke="#D6D6D6" stroke-width="1.5" points="452.761 169.219 416.774 203.441 450.733 126.441 415.761 153.115"/><polyline id="Path-29" stroke="#D6D6D6" stroke-width="1.5" points="197.513 225.018 180.313 313.857 223.313 356.018"/><path id="Path-30" stroke="#D6D6D6" stroke-width="1.5" d="M424.092506,420.905409 L414.092506,432.905409"/><polyline id="Path-31" stroke="#D6D6D6" stroke-width="1.5" points="182.338 311.601 277.338 243.836 198.838 227.271 224.338 355.271"/></g></g></svg>